Coordinates
version=1
nRows=17
nColumns=40
inDegrees=yes

Units are S.I. units (second, meters, Newtons, ...)
Angles are in degrees.

endheader
time	pelvis_tilt	pelvis_list	pelvis_rotation	pelvis_tx	pelvis_ty	pelvis_tz	hip_flexion_r	hip_adduction_r	hip_rotation_r	knee_angle_r	knee_angle_r_beta	ankle_angle_r	subtalar_angle_r	mtp_angle_r	hip_flexion_l	hip_adduction_l	hip_rotation_l	knee_angle_l	knee_angle_l_beta	ankle_angle_l	subtalar_angle_l	mtp_angle_l	lumbar_extension	lumbar_bending	lumbar_rotation	arm_flex_r	arm_add_r	arm_rot_r	elbow_flex_r	pro_sup_r	wrist_flex_r	wrist_dev_r	arm_flex_l	arm_add_l	arm_rot_l	elbow_flex_l	pro_sup_l	wrist_flex_l	wrist_dev_l
     30.16000000	     -2.21881671	     -4.98538287	      0.56364894	      1.13589126	      0.93461187	      0.42519823	     26.31809872	     -6.39960190	     -4.62400928	     63.16454177	     63.16454177	      2.92789724	    -10.52897133	     -2.36749375	     15.14008719	     -6.73300558	     -8.60583498	     23.43782253	     23.43782253	     12.60149362	     -9.37869852	     -0.78747276	    -10.77629995	      4.56717110	      1.51088892	      4.75728279	    -14.15058352	      4.75216238	     39.01598758	     45.31997607	      0.00000000	      0.00000000	     15.50531801	    -15.64935675	      5.85344024	     47.78238113	     45.72970515	      0.00000000	      0.00000000
     30.17350000	     -2.26358672	     -5.21664157	      0.27334386	      1.13476111	      0.93541534	      0.42511749	     27.22310439	     -6.05984285	     -4.48822010	     61.83526174	     61.83526174	      2.61534758	    -10.58200115	     -2.17067233	     14.51549693	     -6.95507693	     -8.80252084	     22.87942221	     22.87942221	     12.70227781	     -9.34176067	     -0.73397029	    -10.86477608	      4.79401679	      1.50439014	      3.25632893	    -14.23771358	      4.89933612	     38.04714472	     45.34359398	      0.00000000	      0.00000000	     16.61654232	    -15.86852104	      5.62750734	     48.63488275	     45.77759944	      0.00000000	      0.00000000
     30.18700000	     -2.35374860	     -5.45478171	     -0.02685706	      1.13362044	      0.93596537	      0.42507226	     28.10862607	     -5.72877191	     -4.39988131	     60.36889361	     60.36889361	      2.29552409	    -10.46299649	     -2.05254328	     14.01870505	     -7.21217052	     -9.04170325	     22.48094268	     22.48094268	     12.85261220	     -9.25523556	     -0.83032316	    -10.92532078	      5.03619098	      1.54667670	      1.76896618	    -14.32679607	      5.00488518	     36.95904001	     45.37491812	      0.00000000	      0.00000000	     17.67503517	    -16.09689118	      5.35407395	     49.74908999	     45.83282797	      0.00000000	      0.00000000
     30.20050000	     -2.42203857	     -5.65260385	     -0.35331257	      1.13249425	      0.93647548	      0.42512650	     28.84715059	     -5.41362407	     -4.30770286	     58.64315425	     58.64315425	      1.98697578	    -10.27334579	     -1.97287784	     13.49295508	     -7.44147924	     -9.35637421	     22.08168293	     22.08168293	     12.98312180	     -9.13192227	     -1.00378041	    -11.03640719	      5.22020763	      1.58222869	      0.40051348	    -14.37654212	      5.03907090	     35.75076207	     45.41747004	      0.00000000	      0.00000000	     18.62180122	    -16.39243036	      5.00652427	     51.10893301	     45.89845682	      0.00000000	      0.00000000
     30.21400000	     -2.51347925	     -5.81387170	     -0.67139423	      1.13143935	      0.93685952	      0.42521033	     29.45723004	     -5.14417082	     -4.27347733	     56.60050842	     56.60050842	      1.72074479	     -9.93207343	     -1.92345518	     12.98524326	     -7.62131792	     -9.65375122	     21.66477332	     21.66477332	     13.09636469	     -9.03272113	     -1.19852485	    -11.10717752	      5.38524221	      1.49739853	     -0.82613177	    -14.37013552	      4.99131030	     34.57055722	     45.46559165	      0.00000000	      0.00000000	     19.40372279	    -16.72765772	      4.59147003	     52.52882741	     45.96993426	      0.00000000	      0.00000000
     30.22750000	     -2.73483818	     -5.86852173	     -0.99195282	      1.13028449	      0.93689721	      0.42539090	     30.11995256	     -4.98114966	     -4.25207051	     54.30031484	     54.30031484	      1.54902254	     -9.43502530	     -1.67494329	     12.72897125	     -7.69262555	     -9.90074342	     21.43266734	     21.43266734	     13.22865854	     -9.08078721	     -1.24843501	    -11.00163645	      5.44684777	      1.11896083	     -1.95163123	    -14.36553263	      4.99978978	     34.01760898	     45.48027246	      0.00000000	      0.00000000	     20.21781478	    -17.32081304	      4.29482043	     53.09560677	     46.01159799	      0.00000000	      0.00000000
     30.24100000	     -2.76715643	     -6.04141334	     -1.32274018	      1.12938670	      0.93729614	      0.42567384	     30.29505033	     -4.70139043	     -4.40530628	     51.45352178	     51.45352178	      1.40263177	     -8.65475142	     -1.58594584	     12.09579100	     -7.87032551	    -10.15716556	     20.91340392	     20.91340392	     13.36560793	     -8.99678726	     -1.35210292	    -11.15199820	      5.64901627	      1.33833887	     -3.20444596	    -14.48100704	      4.93958372	     33.02662697	     45.51894571	      0.00000000	      0.00000000	     20.97614261	    -17.31132478	      3.88004494	     54.60666421	     46.07810750	      0.00000000	      0.00000000
     30.25450000	     -2.89938718	     -6.00774705	     -1.70403496	      1.12842657	      0.93725142	      0.42616166	     30.44945961	     -4.57060280	     -4.48023384	     48.22079221	     48.22079221	      0.72336151	     -8.05230879	     -3.17485360	     11.64401144	     -7.86092947	    -10.54677289	     20.51503626	     20.51503626	     13.20256403	     -9.08274594	     -2.16457407	    -11.24819753	      5.57283666	      0.71601899	     -3.49485164	    -14.09727028	      3.72338415	     31.18268708	     45.69791853	      0.00000000	      0.00000000	     20.41640076	    -18.02814466	      2.02277516	     58.34651774	     46.31866052	      0.00000000	      0.00000000
     30.26800000	     -3.08848268	     -6.02214425	     -2.03731989	      1.12746465	      0.93711107	      0.42673182	     30.49270068	     -4.39917806	     -4.74357173	     44.68240706	     44.68240706	      0.66352969	     -6.93679999	     -2.91147366	     11.31448705	     -7.89482494	    -10.76860818	     20.22617132	     20.22617132	     13.35195384	     -9.15003295	     -2.19429940	    -11.19414835	      5.60145093	      0.73839915	     -4.55097159	    -14.17125278	      3.67755637	     30.67340449	     45.71595160	      0.00000000	      0.00000000	     21.21328737	    -18.23043829	      1.68288966	     59.08123577	     46.36763920	      0.00000000	      0.00000000
     30.28150000	     -3.21889448	     -5.89646058	     -2.41011516	      1.12659444	      0.93690282	      0.42744655	     30.30196846	     -4.37099858	     -5.13765371	     40.80544331	     40.80544331	      0.48380606	     -5.42981446	     -3.12368055	     10.87929064	     -7.78433311	    -11.10423639	     19.88651194	     19.88651194	     13.46235381	     -9.18399023	     -2.32887126	    -11.25756823	      5.45247694	      0.98189658	     -5.65626839	    -14.15629619	      3.34502721	     30.26164115	     45.75279106	      0.00000000	      0.00000000	     21.87176447	    -18.29314707	      0.96626503	     60.67727716	     46.46501547	      0.00000000	      0.00000000
     30.29500000	     -3.47619027	     -5.86416339	     -2.71742822	      1.12575839	      0.93645514	      0.42834770	     30.01084196	     -4.14248156	     -5.62116188	     36.58427069	     36.58427069	      0.30000677	     -4.08771059	     -2.69059784	     10.67329245	     -7.79736466	    -11.31895796	     19.69507128	     19.69507128	     13.60462447	     -9.27848659	     -2.42727778	    -11.07983555	      5.45764606	      0.91129592	     -6.53202199	    -14.18565161	      3.19721344	     30.02284059	     45.76745634	      0.00000000	      0.00000000	     22.42344499	    -18.55447330	      0.58947026	     61.52221501	     46.51532295	      0.00000000	      0.00000000
     30.30850000	     -3.59700529	     -5.74506033	     -3.01239574	      1.12511977	      0.93606123	      0.42934880	     29.37035241	     -3.99991693	     -6.31322850	     32.16234122	     32.16234122	      0.10047099	     -2.23242308	     -2.30459099	     10.28250488	     -7.71497222	    -11.57138318	     19.45402440	     19.45402440	     13.75499935	     -9.29823357	     -2.59234310	    -11.11562288	      5.33421725	      1.03017902	     -7.45267161	    -14.20174644	      2.92143366	     29.91139228	     45.78593703	      0.00000000	      0.00000000	     22.92922924	    -18.66250356	      0.02665247	     62.87216559	     46.58877556	      0.00000000	      0.00000000
     30.32200000	     -3.89287184	     -5.56710314	     -3.30529444	      1.12452262	      0.93528927	      0.43063512	     28.82606343	     -3.78628927	     -6.96142821	     27.77039646	     27.77039646	     -0.20466524	     -0.58062796	     -1.53944914	     10.08963771	     -7.59672809	    -11.82766584	     19.23124173	     19.23124173	     13.90372150	     -9.32601209	     -2.74988631	    -10.88049410	      5.14172147	      1.05062073	     -8.22959911	    -14.07576984	      2.74770829	     29.87528126	     45.79400116	      0.00000000	      0.00000000	     23.37765532	    -18.82741933	     -0.39078154	     63.86386318	     46.64263502	      0.00000000	      0.00000000
     30.33550000	     -4.02152872	     -5.33998467	     -3.53736784	      1.12424814	      0.93461605	      0.43195780	     27.98722723	     -3.60723577	     -7.75536053	     23.54383981	     23.54383981	     -0.47439308	      1.24879087	     -0.57316534	      9.70532934	     -7.41584478	    -12.08159513	     19.01341058	     19.01341058	     14.06343452	     -9.29715687	     -2.96394221	    -10.82537633	      4.94318309	      1.12081390	     -8.99214370	    -14.01101934	      2.52937400	     29.92780857	     45.80142316	      0.00000000	      0.00000000	     23.77743210	    -18.92136088	     -0.85815183	     64.98172955	     46.70184844	      0.00000000	      0.00000000
     30.34900000	     -3.95015122	     -5.08839486	     -3.71200770	      1.12443591	      0.93408208	      0.43332596	     27.02330463	     -3.57897917	     -9.17435573	     20.03884861	     20.03884861	     -0.06200177	      3.94290858	      2.04268345	      8.97275248	     -7.17967690	    -12.34820332	     18.57901013	     18.57901013	     14.01441706	     -9.20568494	     -3.95515279	    -10.97324627	      4.64161415	      0.79537507	     -9.86258194	    -13.96477408	      1.02957480	     31.33208051	     45.84413062	      0.00000000	      0.00000000	     23.16145214	    -18.93348992	     -2.82592044	     67.98492457	     46.92015570	      0.00000000	      0.00000000
     30.36250000	     -4.02673273	     -4.84115406	     -3.91530395	      1.12470231	      0.93328472	      0.43510504	     26.23231859	     -3.30192112	     -9.90227924	     16.95908812	     16.95908812	     -0.19178062	      5.18515962	      3.29145171	      8.45281375	     -6.98818827	    -12.62659759	     18.27663498	     18.27663498	     14.17550976	     -9.16496521	     -4.15696491	    -10.79451047	      4.38301661	      0.90885879	    -10.42126902	    -13.85329723	      0.93289620	     31.25967764	     45.84977363	      0.00000000	      0.00000000	     23.55589047	    -18.99862040	     -3.07483349	     68.54952329	     46.95610800	      0.00000000	      0.00000000
     30.37600000	     -4.03616379	     -4.55313001	     -4.08735120	      1.12521524	      0.93256065	      0.43697047	     25.52825332	     -3.12689071	    -10.78235411	     14.74438039	     14.74438039	     -0.12083385	      6.35250842	      4.53246054	      7.79537697	     -6.74605388	    -12.93144211	     17.86978172	     17.86978172	     14.34126294	     -8.97410008	     -4.44598471	    -10.68213811	      4.05901149	      1.01342315	    -10.89370215	    -13.74822060	      0.81030790	     31.37673635	     45.84966398	      0.00000000	      0.00000000	     23.79768515	    -18.98318864	     -3.37033780	     69.18684325	     46.99453030	      0.00000000	      0.00000000
